<!-- Generator: Adobe Illustrator 22.0.0, SVG Export Plug-In  -->
<svg version="1.1"
	 xmlns="http://www.w3.org/2000/svg" xmlns:xlink="http://www.w3.org/1999/xlink" xmlns:a="http://ns.adobe.com/AdobeSVGViewerExtensions/3.0/"
	 x="0px" y="0px" width="657.4px" height="639.4px" viewBox="0 0 657.4 639.4" style="enable-background:new 0 0 657.4 639.4;"
	 xml:space="preserve">
<style type="text/css">
	.st0{fill:#13110C;}
	.st1{fill:url(#SVGID_1_);}
	.st2{fill:url(#SVGID_2_);}
	.st3{fill:url(#SVGID_3_);}
	.st4{fill:url(#SVGID_4_);}
</style>
<defs>
</defs>
<g>
	<g>
		<g>
			<path class="st0" d="M609.6,6.4v24.7h-7.9V6.4h-9.3V0H619v6.4H609.6z"/>
			<path class="st0" d="M650.4,31.1l0-20.2L642.9,28h-5.1l-7.5-17.1v20.2h-7.1V0h8.7l8.4,18.5L648.8,0h8.6v31.1H650.4z"/>
		</g>
		<path d="M521.5,490.2l93.2-92.7c12.7-12.7,12.8-33.2,0.1-46c-12.7-12.7-33.2-12.8-46-0.1L391,528.4V374.5
			c0-17.9-14.6-32.5-32.5-32.5c-18,0-32.5,14.6-32.5,32.5v232c0,0.2,0,0.3,0,0.5c0,0.4,0,0.7,0,1.1c0,0.3,0,0.5,0.1,0.8
			c0,0.3,0,0.5,0.1,0.8c0,0.3,0.1,0.6,0.1,0.9c0,0.2,0.1,0.4,0.1,0.6c0,0.3,0.1,0.7,0.2,1c0,0.2,0.1,0.4,0.1,0.6
			c0.1,0.3,0.1,0.7,0.2,1c0,0.2,0.1,0.4,0.1,0.5c0.1,0.3,0.2,0.6,0.3,1c0.1,0.2,0.1,0.4,0.2,0.6c0.1,0.3,0.2,0.6,0.3,0.9
			c0.1,0.2,0.1,0.4,0.2,0.6c0.1,0.3,0.2,0.5,0.3,0.8c0.1,0.2,0.2,0.5,0.3,0.7c0.1,0.2,0.2,0.5,0.3,0.7c0.1,0.3,0.2,0.5,0.3,0.8
			c0.1,0.2,0.2,0.4,0.3,0.6c0.1,0.3,0.3,0.6,0.4,0.8c0.1,0.2,0.2,0.4,0.3,0.5c0.2,0.3,0.3,0.6,0.5,0.9c0.1,0.2,0.2,0.3,0.3,0.5
			c0.2,0.3,0.4,0.6,0.5,0.8c0.1,0.2,0.2,0.3,0.3,0.5c0.2,0.3,0.4,0.5,0.6,0.8c0.1,0.2,0.3,0.4,0.4,0.5c0.2,0.2,0.4,0.5,0.6,0.7
			c0.2,0.2,0.3,0.4,0.5,0.6c0.2,0.2,0.3,0.4,0.5,0.6c0.2,0.3,0.5,0.5,0.7,0.8c0.1,0.1,0.2,0.2,0.3,0.4c0,0,0,0,0,0
			c0.4,0.4,0.8,0.8,1.2,1.1c0.2,0.2,0.4,0.3,0.6,0.5c0.2,0.2,0.4,0.4,0.7,0.6c0.3,0.2,0.5,0.4,0.8,0.6c0.1,0.1,0.3,0.2,0.4,0.3
			c0.3,0.2,0.6,0.4,0.9,0.6c0.1,0.1,0.3,0.2,0.4,0.3c0.3,0.2,0.6,0.4,0.9,0.6c0.1,0.1,0.3,0.2,0.4,0.3c0.3,0.2,0.6,0.4,0.9,0.5
			c0.2,0.1,0.3,0.2,0.5,0.3c0.3,0.2,0.6,0.3,0.9,0.4c0.2,0.1,0.4,0.2,0.6,0.3c0.3,0.1,0.5,0.2,0.8,0.4c0.2,0.1,0.5,0.2,0.7,0.3
			c0.2,0.1,0.5,0.2,0.7,0.3c0.3,0.1,0.5,0.2,0.8,0.3c0.2,0.1,0.4,0.1,0.6,0.2c0.3,0.1,0.6,0.2,0.9,0.3c0.2,0.1,0.4,0.1,0.5,0.2
			c0.3,0.1,0.7,0.2,1,0.3c0.2,0,0.3,0.1,0.5,0.1c0.4,0.1,0.7,0.2,1.1,0.2c0.2,0,0.3,0.1,0.5,0.1c0.4,0.1,0.7,0.1,1.1,0.2
			c0.2,0,0.4,0,0.6,0.1c0.3,0,0.7,0.1,1,0.1c0.3,0,0.5,0,0.8,0.1c0.3,0,0.5,0,0.8,0.1c0.5,0,1.1,0,1.6,0c0,0,0,0,0,0h0l0,0
			c0.5,0,1.1,0,1.6,0c0.2,0,0.5,0,0.7-0.1c0.3,0,0.6,0,0.9-0.1c0.3,0,0.6-0.1,0.9-0.1c0.2,0,0.4,0,0.6-0.1c0.3,0,0.7-0.1,1-0.2
			c0.2,0,0.4-0.1,0.6-0.1c0.3-0.1,0.7-0.1,1-0.2c0.2,0,0.4-0.1,0.5-0.1c0.3-0.1,0.7-0.2,1-0.3c0.2-0.1,0.4-0.1,0.6-0.2
			c0.3-0.1,0.6-0.2,0.9-0.3c0.2-0.1,0.4-0.1,0.6-0.2c0.3-0.1,0.5-0.2,0.8-0.3c0.2-0.1,0.5-0.2,0.7-0.3c0.2-0.1,0.5-0.2,0.7-0.3
			c0.3-0.1,0.5-0.2,0.8-0.4c0.2-0.1,0.4-0.2,0.6-0.3c0.3-0.1,0.6-0.3,0.8-0.4c0.2-0.1,0.3-0.2,0.5-0.3c0.3-0.2,0.6-0.3,0.9-0.5
			c0.2-0.1,0.3-0.2,0.5-0.3c0.3-0.2,0.6-0.4,0.9-0.5c0.2-0.1,0.3-0.2,0.5-0.3c0.3-0.2,0.5-0.4,0.8-0.6c0.2-0.1,0.3-0.3,0.5-0.4
			c0.2-0.2,0.5-0.4,0.7-0.6c0.2-0.2,0.4-0.3,0.6-0.5c0.2-0.2,0.4-0.3,0.6-0.5c0.3-0.2,0.5-0.5,0.8-0.7c0.1-0.1,0.3-0.2,0.4-0.4
			l94-93.5l93,93c6.3,6.3,14.7,9.5,23,9.5c8.3,0,16.6-3.2,23-9.5c12.7-12.7,12.7-33.3,0-46L521.5,490.2z"/>
		<path d="M157.9,15.2c-0.7,0-1.3,0-2,0.1c-0.7,0-1.3-0.1-2-0.1H33.4c-18,0-32.5,14.6-32.5,32.5c0,0,0,0,0,0l0,0v231.9
			c0,0,0,0.1,0,0.1c0,0,0,0.1,0,0.1c0,17.9,14.6,32.5,32.5,32.5h120.6c0.7,0,1.3,0,2-0.1c0.7,0,1.3,0.1,2,0.1
			c76.7,0,139-66.6,139-148.6C297,81.8,234.6,15.2,157.9,15.2z M157.9,247.3c-0.7,0-1.3,0-2,0.1c-0.7,0-1.3-0.1-2-0.1H65.9V80.2
			h88.1c0.7,0,1.3,0,2-0.1c0.7,0,1.3,0.1,2,0.1c40.8,0,74,37.5,74,83.6C232,209.8,198.8,247.3,157.9,247.3z"/>
		<g>
			<path d="M475.9,313.3c-82.1,0-148.9-66.8-148.9-148.9c0-28.1,7.9-55.5,22.8-79.3l55.2,34.7c-8.4,13.3-12.8,28.7-12.8,44.5
				c0,46.2,37.6,83.7,83.7,83.7c46.2,0,83.7-37.6,83.7-83.7h65.2C624.8,246.5,558,313.3,475.9,313.3z"/>
			<linearGradient id="SVGID_1_" gradientUnits="userSpaceOnUse" x1="535.8815" y1="226.7778" x2="401.484" y2="34.8382">
				<stop  offset="1.612900e-02" style="stop-color:#000000;stop-opacity:0"/>
				<stop  offset="0.6989" style="stop-color:#000000"/>
			</linearGradient>
			<path class="st1" d="M624.8,164.5h-65.2c0-46.2-37.6-83.7-83.7-83.7c-46.2,0-83.7,37.6-83.7,83.7h-65.2
				c0-82.1,66.8-148.9,148.9-148.9C558,15.6,624.8,82.4,624.8,164.5z"/>
		</g>
		<g>
			<path d="M148.9,639.4c82.1,0,148.9-66.8,148.9-148.9c0-28.1-7.9-55.5-22.8-79.3l-55.2,34.7c8.4,13.3,12.8,28.7,12.8,44.5
				c0,46.2-37.6,83.7-83.7,83.7c-46.2,0-83.7-37.6-83.7-83.7H0C0,572.6,66.8,639.4,148.9,639.4z"/>
			
				<linearGradient id="SVGID_2_" gradientUnits="userSpaceOnUse" x1="862.8164" y1="552.8707" x2="728.4193" y2="360.9316" gradientTransform="matrix(-1 0 0 1 951.7431 0)">
				<stop  offset="1.612900e-02" style="stop-color:#000000;stop-opacity:0"/>
				<stop  offset="0.6989" style="stop-color:#000000"/>
			</linearGradient>
			<path class="st2" d="M0,490.6h65.2c0-46.2,37.6-83.7,83.7-83.7c46.2,0,83.7,37.6,83.7,83.7h65.2c0-82.1-66.8-148.9-148.9-148.9
				C66.8,341.7,0,408.5,0,490.6z"/>
		</g>
	</g>
</g>
</svg>
