<?xml version="1.0" encoding="utf-8"?>
<!-- Generator: Adobe Illustrator 19.0.0, SVG Export Plug-In . SVG Version: 6.00 Build 0)  -->
<svg version="1.1" id="Layer_1" xmlns="http://www.w3.org/2000/svg" xmlns:xlink="http://www.w3.org/1999/xlink" x="0px" y="0px"
	 viewBox="0 0 30 23.9" style="enable-background:new 0 0 30 23.9;" xml:space="preserve">
<style type="text/css">
    path, rect, polygon { transition: linear .2s all; }
	.st0{fill:#003594;}
	.st1{fill:#007DBA;}
    .st2{fill:#FF7F32;}
	.white * {fill:#fff;}
</style>
<g id="XMLID_1_">
	<path id="XMLID_4_" class="st0" d="M19.2,2.5L19.2,2.5c-1.7,0-3.3,0.4-4.9,1.1v2.1c1.1-1.1,2.7-1.8,4.6-1.8l0,0
		c4.6,0,7.6,4.3,7.6,9.2c0,4.5-1.9,9.4-7.1,9.4c-4.8,0-7.8-4.7-7.8-9.7c0-1.9,0.3-3.5,0.9-4.9H9.8c-0.8,1.5-1.4,3.3-1.4,5.4
		c0,7.1,5.5,10.5,10.8,10.5c5,0,10.8-3.2,10.7-11.1C29.9,5.8,24.1,2.5,19.2,2.5"/>
	<rect id="XMLID_3_" x="5.2" class="st1" width="4.6" height="4.6"/>
	<polygon id="XMLID_2_" class="st2" points="3,7.6 1.9,9.5 0.1,8.4 1.1,6.5 	"/>
</g>
</svg>
